<?xml version="1.0" encoding="utf-8"?>
<!-- Generator: Adobe Illustrator 27.5.0, SVG Export Plug-In . SVG Version: 6.00 Build 0)  -->
<!DOCTYPE svg PUBLIC "-//W3C//DTD SVG 1.1//EN" "http://www.w3.org/Graphics/SVG/1.1/DTD/svg11.dtd" [
	<!ENTITY ns_extend "http://ns.adobe.com/Extensibility/1.0/">
	<!ENTITY ns_ai "http://ns.adobe.com/AdobeIllustrator/10.0/">
	<!ENTITY ns_graphs "http://ns.adobe.com/Graphs/1.0/">
	<!ENTITY ns_vars "http://ns.adobe.com/Variables/1.0/">
	<!ENTITY ns_imrep "http://ns.adobe.com/ImageReplacement/1.0/">
	<!ENTITY ns_sfw "http://ns.adobe.com/SaveForWeb/1.0/">
	<!ENTITY ns_custom "http://ns.adobe.com/GenericCustomNamespace/1.0/">
	<!ENTITY ns_adobe_xpath "http://ns.adobe.com/XPath/1.0/">
]>
<svg version="1.1" id="Capa_1" xmlns:x="&ns_extend;" xmlns:i="&ns_ai;" xmlns:graph="&ns_graphs;"
	 xmlns="http://www.w3.org/2000/svg" xmlns:xlink="http://www.w3.org/1999/xlink" x="0px" y="0px" viewBox="0 0 20 20"
	 style="enable-background:new 0 0 20 20;" xml:space="preserve">
<style type="text/css">
	.st0{fill:#007C82;}
</style>
<metadata>
	<sfw  xmlns="&ns_sfw;">
		<slices></slices>
		<sliceSourceBounds  bottomLeftOrigin="true" height="20" width="20" x="0" y="0"></sliceSourceBounds>
	</sfw>
</metadata>
<path class="st0" d="M14.2,0H5.8C2.2,0,0,2.2,0,5.8v8.4C0,17.8,2.2,20,5.8,20h8.4c3.6,0,5.8-2.2,5.8-5.8V5.8C20,2.2,17.8,0,14.2,0z
	 M9,15.5c-0.3,0.3-0.8,0.6-1.2,0.6l-2.5,0.4c-0.1,0-0.2,0-0.3,0c-0.4,0-0.8-0.1-1.1-0.4c-0.3-0.3-0.5-0.8-0.4-1.3l0.3-2.5
	c0.1-0.4,0.3-0.9,0.6-1.2L9,6.6C9.1,6.8,9.1,7,9.2,7.3c0.1,0.2,0.2,0.4,0.3,0.6c0.1,0.2,0.2,0.3,0.3,0.4c0.1,0.2,0.2,0.3,0.3,0.4
	c0.1,0.1,0.1,0.1,0.1,0.1c0.2,0.3,0.5,0.6,0.8,0.8c0.1,0.1,0.1,0.1,0.1,0.1c0.1,0.1,0.3,0.2,0.4,0.3c0.2,0.1,0.3,0.2,0.5,0.3
	s0.4,0.2,0.6,0.3c0.2,0.1,0.4,0.2,0.6,0.3L9,15.5z M15.4,9.1L14.5,10c-0.1,0.1-0.1,0.1-0.2,0.1h-0.1c-2-0.6-3.6-2.2-4.2-4.2
	c0-0.1,0-0.2,0.1-0.3L11,4.7c1.5-1.5,3-1.5,4.5,0c0.8,0.8,1.1,1.5,1.1,2.2C16.5,7.6,16.1,8.3,15.4,9.1z"/>
</svg>
