<?xml version="1.0" encoding="utf-8"?>
<!-- Generator: Adobe Illustrator 27.5.0, SVG Export Plug-In . SVG Version: 6.00 Build 0)  -->
<!DOCTYPE svg PUBLIC "-//W3C//DTD SVG 1.1//EN" "http://www.w3.org/Graphics/SVG/1.1/DTD/svg11.dtd" [
	<!ENTITY ns_extend "http://ns.adobe.com/Extensibility/1.0/">
	<!ENTITY ns_ai "http://ns.adobe.com/AdobeIllustrator/10.0/">
	<!ENTITY ns_graphs "http://ns.adobe.com/Graphs/1.0/">
	<!ENTITY ns_vars "http://ns.adobe.com/Variables/1.0/">
	<!ENTITY ns_imrep "http://ns.adobe.com/ImageReplacement/1.0/">
	<!ENTITY ns_sfw "http://ns.adobe.com/SaveForWeb/1.0/">
	<!ENTITY ns_custom "http://ns.adobe.com/GenericCustomNamespace/1.0/">
	<!ENTITY ns_adobe_xpath "http://ns.adobe.com/XPath/1.0/">
]>
<svg version="1.1" id="Capa_1" xmlns:x="&ns_extend;" xmlns:i="&ns_ai;" xmlns:graph="&ns_graphs;"
	 xmlns="http://www.w3.org/2000/svg" xmlns:xlink="http://www.w3.org/1999/xlink" x="0px" y="0px" viewBox="0 0 20 20"
	 style="enable-background:new 0 0 20 20;" xml:space="preserve">
<style type="text/css">
	.st0{fill:#007C82;}
</style>
<metadata>
	<sfw  xmlns="&ns_sfw;">
		<slices></slices>
		<sliceSourceBounds  bottomLeftOrigin="true" height="20" width="20" x="0" y="0"></sliceSourceBounds>
	</sfw>
</metadata>
<g>
	<path class="st0" d="M12,0.9v8.3c0,1-0.8,1.9-1.9,1.9H1c-0.5,0-1-0.4-1-1V3.7C0,1.7,1.7,0,3.7,0h7.4C11.6,0,12,0.4,12,0.9z"/>
	<path class="st0" d="M19.5,13.5c0.3,0,0.5,0.2,0.5,0.5v1c0,1.7-1.3,3-3,3c0-1.6-1.4-3-3-3s-3,1.4-3,3H9c0-1.6-1.4-3-3-3s-3,1.4-3,3
		c-1.7,0-3-1.3-3-3v-2c0-0.6,0.5-1,1-1h9.5c1.4,0,2.5-1.1,2.5-2.5V4c0-0.6,0.4-1,1-1h0.8c0.7,0,1.4,0.4,1.7,1l0.6,1.1
		c0.1,0.2,0,0.4-0.2,0.4c-1.4,0-2.5,1.1-2.5,2.5v3c0,1.4,1.1,2.5,2.5,2.5H19.5z"/>
	<path class="st0" d="M6,20c1.1,0,2-0.9,2-2s-0.9-2-2-2s-2,0.9-2,2S4.9,20,6,20z"/>
	<path class="st0" d="M14,20c1.1,0,2-0.9,2-2s-0.9-2-2-2s-2,0.9-2,2S12.9,20,14,20z"/>
	<path class="st0" d="M20,10.5V12h-3c-0.5,0-1-0.4-1-1V8c0-0.6,0.5-1,1-1h1.3l1.5,2.5C19.9,9.8,20,10.2,20,10.5z"/>
</g>
</svg>
