<?xml version="1.0" encoding="utf-8"?>
<!-- Generator: Adobe Illustrator 27.4.1, SVG Export Plug-In . SVG Version: 6.00 Build 0)  -->
<!DOCTYPE svg PUBLIC "-//W3C//DTD SVG 1.1//EN" "http://www.w3.org/Graphics/SVG/1.1/DTD/svg11.dtd" [
	<!ENTITY ns_extend "http://ns.adobe.com/Extensibility/1.0/">
	<!ENTITY ns_ai "http://ns.adobe.com/AdobeIllustrator/10.0/">
	<!ENTITY ns_graphs "http://ns.adobe.com/Graphs/1.0/">
	<!ENTITY ns_vars "http://ns.adobe.com/Variables/1.0/">
	<!ENTITY ns_imrep "http://ns.adobe.com/ImageReplacement/1.0/">
	<!ENTITY ns_sfw "http://ns.adobe.com/SaveForWeb/1.0/">
	<!ENTITY ns_custom "http://ns.adobe.com/GenericCustomNamespace/1.0/">
	<!ENTITY ns_adobe_xpath "http://ns.adobe.com/XPath/1.0/">
]>
<svg version="1.1" id="Capa_1" xmlns:x="&ns_extend;" xmlns:i="&ns_ai;" xmlns:graph="&ns_graphs;"
	 xmlns="http://www.w3.org/2000/svg" xmlns:xlink="http://www.w3.org/1999/xlink" x="0px" y="0px" viewBox="0 0 504 384.1"
	 style="enable-background:new 0 0 504 384.1;" xml:space="preserve">
<style type="text/css">
	.st0{fill:#EEEEEE;}
</style>
<metadata>
	<sfw  xmlns="&ns_sfw;">
		<slices></slices>
		<sliceSourceBounds  bottomLeftOrigin="true" height="384.1" width="504" x="0" y="64"></sliceSourceBounds>
	</sfw>
</metadata>
<path class="st0" d="M497,209L329,377c-15,15-41,4.5-41-17v-96H152c-13.3,0-24-10.7-24-24v-96c0-13.3,10.7-24,24-24h136V24
	c0-21.4,25.9-32,41-17l168,168C506.3,184.4,506.3,199.6,497,209z M192,372v-40c0-6.6-5.4-12-12-12H96c-17.7,0-32-14.3-32-32V96
	c0-17.7,14.3-32,32-32h84c6.6,0,12-5.4,12-12V12c0-6.6-5.4-12-12-12H96C43,0,0,43,0,96v192c0,53,43,96,96,96h84
	C186.6,384,192,378.6,192,372z"/>
</svg>
