<?xml version="1.0" encoding="utf-8"?>
<!-- Generator: Adobe Illustrator 27.4.1, SVG Export Plug-In . SVG Version: 6.00 Build 0)  -->
<!DOCTYPE svg PUBLIC "-//W3C//DTD SVG 1.1//EN" "http://www.w3.org/Graphics/SVG/1.1/DTD/svg11.dtd" [
	<!ENTITY ns_extend "http://ns.adobe.com/Extensibility/1.0/">
	<!ENTITY ns_ai "http://ns.adobe.com/AdobeIllustrator/10.0/">
	<!ENTITY ns_graphs "http://ns.adobe.com/Graphs/1.0/">
	<!ENTITY ns_vars "http://ns.adobe.com/Variables/1.0/">
	<!ENTITY ns_imrep "http://ns.adobe.com/ImageReplacement/1.0/">
	<!ENTITY ns_sfw "http://ns.adobe.com/SaveForWeb/1.0/">
	<!ENTITY ns_custom "http://ns.adobe.com/GenericCustomNamespace/1.0/">
	<!ENTITY ns_adobe_xpath "http://ns.adobe.com/XPath/1.0/">
]>
<svg version="1.1" id="Capa_1" xmlns:x="&ns_extend;" xmlns:i="&ns_ai;" xmlns:graph="&ns_graphs;"
	 xmlns="http://www.w3.org/2000/svg" xmlns:xlink="http://www.w3.org/1999/xlink" x="0px" y="0px" viewBox="0 0 640 512"
	 style="enable-background:new 0 0 640 512;" xml:space="preserve">
<style type="text/css">
	.st0{fill:#EEEEEE;}
</style>
<metadata>
	<sfw  xmlns="&ns_sfw;">
		<slices></slices>
		<sliceSourceBounds  bottomLeftOrigin="true" height="512" width="640" x="0" y="0"></sliceSourceBounds>
	</sfw>
</metadata>
<path class="st0" d="M622.3,271.1l-115.2-45c-4.1-1.6-12.6-3.7-22.2,0l-115.2,45c-10.7,4.2-17.7,14-17.7,24.9
	c0,111.6,68.7,188.8,132.9,213.9c9.6,3.7,18,1.6,22.2,0C558.4,489.9,640,420.5,640,296C640,285.1,633,275.3,622.3,271.1L622.3,271.1
	z M496,462.4V273.3l95.5,37.3C585.9,397.7,530.6,446,496,462.4z M224,256c70.7,0,128-57.3,128-128S294.7,0,224,0S96,57.3,96,128
	S153.3,256,224,256z M320,296c0-2.5,0.8-4.8,1.1-7.2c-2.5-0.1-4.9-0.8-7.5-0.8h-16.7c-22.2,10.2-46.9,16-72.9,16s-50.6-5.8-72.9-16
	h-16.7C60.2,288,0,348.2,0,422.4V464c0,26.5,21.5,48,48,48h352c6.8,0,13.3-1.5,19.2-4C365.2,465.1,320,391.3,320,296L320,296z"/>
</svg>
