<?xml version="1.0" encoding="utf-8"?>
<!-- Generator: Adobe Illustrator 27.4.1, SVG Export Plug-In . SVG Version: 6.00 Build 0)  -->
<!DOCTYPE svg PUBLIC "-//W3C//DTD SVG 1.1//EN" "http://www.w3.org/Graphics/SVG/1.1/DTD/svg11.dtd" [
	<!ENTITY ns_extend "http://ns.adobe.com/Extensibility/1.0/">
	<!ENTITY ns_ai "http://ns.adobe.com/AdobeIllustrator/10.0/">
	<!ENTITY ns_graphs "http://ns.adobe.com/Graphs/1.0/">
	<!ENTITY ns_vars "http://ns.adobe.com/Variables/1.0/">
	<!ENTITY ns_imrep "http://ns.adobe.com/ImageReplacement/1.0/">
	<!ENTITY ns_sfw "http://ns.adobe.com/SaveForWeb/1.0/">
	<!ENTITY ns_custom "http://ns.adobe.com/GenericCustomNamespace/1.0/">
	<!ENTITY ns_adobe_xpath "http://ns.adobe.com/XPath/1.0/">
]>
<svg version="1.1" id="Capa_1" xmlns:x="&ns_extend;" xmlns:i="&ns_ai;" xmlns:graph="&ns_graphs;"
	 xmlns="http://www.w3.org/2000/svg" xmlns:xlink="http://www.w3.org/1999/xlink" x="0px" y="0px" viewBox="0 0 14.9 20.1"
	 style="enable-background:new 0 0 14.9 20.1;" xml:space="preserve">
<style type="text/css">
	.st0{fill:#F7E6DF;}
</style>
<metadata>
	<sfw  xmlns="&ns_sfw;">
		<slices></slices>
		<sliceSourceBounds  bottomLeftOrigin="true" height="20.1" width="14.9" x="4.4" y="1.9"></sliceSourceBounds>
	</sfw>
</metadata>
<path class="st0" d="M13.6,10.3l-1.2-1.2c-0.3-0.2-0.5-0.6-0.5-1s0.2-0.9,0.5-1.2l1.2-1.2c1-1,1.4-2,1.1-2.8s-1.3-1.2-2.8-1.2H1.5
	V0.8C1.5,0.3,1.2,0,0.8,0S0,0.3,0,0.8v18.5c0,0.4,0.3,0.8,0.8,0.8s0.8-0.3,0.8-0.8v-4.9h10.5c1.4,0,2.4-0.4,2.7-1.2
	S14.6,11.4,13.6,10.3z"/>
</svg>
